<svg width="16" height="15" viewBox="0 0 16 15" fill="none" xmlns="http://www.w3.org/2000/svg">
<g clip-path="url(#clip0_0_2536)">
<path d="M13.7776 6.24967H9.33312V2.08301C9.33312 1.75149 9.19264 1.43354 8.94259 1.19912C8.69254 0.964704 8.3534 0.833008 7.99978 0.833008C7.64616 0.833008 7.30702 0.964704 7.05697 1.19912C6.80693 1.43354 6.66645 1.75149 6.66645 2.08301V6.24967H2.22201C1.86838 6.24967 1.52924 6.38137 1.2792 6.61579C1.02915 6.85021 0.888672 7.16815 0.888672 7.49967C0.888672 7.83119 1.02915 8.14914 1.2792 8.38356C1.52924 8.61798 1.86838 8.74967 2.22201 8.74967H6.66645V12.9163C6.66645 13.2479 6.80693 13.5658 7.05697 13.8002C7.30702 14.0346 7.64616 14.1663 7.99978 14.1663C8.3534 14.1663 8.69254 14.0346 8.94259 13.8002C9.19264 13.5658 9.33312 13.2479 9.33312 12.9163V8.74967H13.7776C14.1312 8.74967 14.4703 8.61798 14.7204 8.38356C14.9704 8.14914 15.1109 7.83119 15.1109 7.49967C15.1109 7.16815 14.9704 6.85021 14.7204 6.61579C14.4703 6.38137 14.1312 6.24967 13.7776 6.24967Z" fill="white"/>
</g>
<defs>
<clipPath id="clip0_0_2536">
<rect width="16" height="15" fill="white"/>
</clipPath>
</defs>
</svg>
