<svg width="26" height="30" viewBox="0 0 26 30" fill="none" xmlns="http://www.w3.org/2000/svg">
<path d="M18.5369 14.8474L25.0491 7.68406C26.2049 6.40905 26.1838 4.48967 24.9857 3.24208L22.3287 0.479547C21.9904 0.129946 21.5323 -0.027717 21.0812 0.00655761H5.0263C4.98401 0.00655761 4.94172 0.00655761 4.89944 0.0134125C4.42723 -0.0482817 3.92684 0.102526 3.5674 0.472692L0.917429 3.24893C-0.280698 4.48967 -0.308889 6.4159 0.853998 7.68406L7.36617 14.8406L1.12886 21.8943C0.78352 22.285 0.670756 22.8197 0.818759 23.3064L2.58071 28.9343C2.9331 30.0585 4.41314 30.3738 5.20954 29.4895L12.9551 20.9826L20.6936 29.4895C21.49 30.367 22.97 30.0517 23.3224 28.9343L25.0773 23.3064C25.2323 22.8129 25.1125 22.285 24.7672 21.8943L18.5369 14.8474ZM18.9034 1.8094L15.6685 5.46992C15.6473 5.46992 15.6191 5.46992 15.598 5.46992H10.6293C10.5095 5.46992 10.4038 5.49049 10.2981 5.53162L7.00673 1.8094H18.9034ZM14.0757 7.26591L12.9551 8.53407L11.8345 7.26591H14.0757ZM2.23537 6.49131C1.70678 5.90864 1.72088 5.03806 2.26356 4.47596L4.688 1.95335L11.7288 9.91191L8.58544 13.4696L2.23537 6.49131ZM4.18761 27.8924L2.64414 22.9362L21.2151 1.95335L23.6395 4.47596C24.1822 5.03806 24.1963 5.91549 23.6677 6.49131L4.18761 27.8924ZM21.7155 27.8924L14.1884 19.6253L17.3036 16.2047L23.266 22.9362L21.7155 27.8924Z" fill="black"/>
</svg>
