<svg width="29" height="30" viewBox="0 0 29 30" fill="none" xmlns="http://www.w3.org/2000/svg">
<path d="M13.2873 21.2357L12.4846 20.4589C11.3773 20.9464 10.1704 20.2661 9.36204 19.4839C8.55926 18.7071 7.14748 16.5643 8.1551 15.5893C9.26238 14.5179 11.4769 15.9804 12.2797 16.6607C13.0825 17.4375 13.7912 18.6107 13.1877 19.6821C13.6915 20.1696 14.1953 20.6571 14.6991 21.1446L19.931 26.2071C20.4348 26.6946 19.6265 27.375 19.2279 26.8875L14.0957 21.9214L8.85823 26.8821C8.45407 27.3696 7.65129 26.6893 8.1551 26.2018L13.2873 21.2357ZM14.4943 4.09286L2.1149 14.025L0 11.5929L14.4943 0L28.8889 11.5929L26.774 14.0304L14.4943 4.09286ZM4.13015 14.4161L14.4998 6.13929L24.7698 14.4161V30H4.12461L4.13015 14.4161ZM5.94055 15.2946V28.2482H22.9539V15.2946L14.4943 8.475L5.94055 15.2946ZM14.9981 19.5804C14.5939 18.9 14.5939 18.1179 15.1974 17.5339L18.3199 14.6143C18.7241 14.1268 19.3275 14.7107 18.8237 15.1018L16.4099 17.5393C16.1054 17.8339 16.5095 18.2196 16.814 18.0268L19.3331 15.5893C19.7372 15.1982 20.3407 15.6857 19.9365 16.1732L17.4175 18.5089C17.113 18.8036 17.6168 19.1893 17.8216 18.9964L20.3407 16.5589C20.7449 16.1679 21.3483 16.7518 20.9442 17.1429L18.3255 19.6768L17.8216 20.0679C17.2182 20.6518 16.4099 20.7482 15.7067 20.3625L15.2029 20.85L14.4998 20.0732L14.9981 19.5804Z" fill="black"/>
</svg>
